Coordinates
version=1
nRows=14
nColumns=63
inDegrees=yes

Units are S.I. units (second, meters, Newtons, ...)
If the header above contains a line with 'inDegrees', this indicates whether rotational values are in degrees (yes) or radians (no).

endheader
time	pelvis_tilt	pelvis_list	pelvis_rotation	pelvis_tx	pelvis_ty	pelvis_tz	hip_flexion_r	hip_adduction_r	hip_rotation_r	knee_angle_r	knee_angle_r_beta	ankle_angle_r	subtalar_angle_r	mtp_angle_r	hip_flexion_l	hip_adduction_l	hip_rotation_l	knee_angle_l	knee_angle_l_beta	ankle_angle_l	subtalar_angle_l	mtp_angle_l	L5_S1_Flex_Ext	L5_S1_Lat_Bending	L5_S1_axial_rotation	L4_L5_Flex_Ext	L4_L5_Lat_Bending	L4_L5_axial_rotation	L3_L4_Flex_Ext	L3_L4_Lat_Bending	L3_L4_axial_rotation	L2_L3_Flex_Ext	L2_L3_Lat_Bending	L2_L3_axial_rotation	L1_L2_Flex_Ext	L1_L2_Lat_Bending	L1_L2_axial_rotation	L1_T12_Flex_Ext	L1_T12_Lat_Bending	L1_T12_axial_rotation	Abs_r3	Abs_r2	Abs_r1	Abs_t1	Abs_t2	neck_flexion	neck_bending	neck_rotation	arm_flex_r	arm_add_r	arm_rot_r	elbow_flex_r	pro_sup_r	wrist_flex_r	wrist_dev_r	arm_flex_l	arm_add_l	arm_rot_l	elbow_flex_l	pro_sup_l	wrist_flex_l	wrist_dev_l
2.714286	-5.999664	-2.452813	87.616887	0.283847	0.408998	0.921006	8.511712	-4.913948	-2.451755	14.326807	0.250050	25.400554	-2.841056	0.000000	3.216977	6.244280	-10.924488	3.726164	0.065034	22.174320	11.816310	0.000000	-0.255347	-0.548130	-2.880772	-0.474205	-0.729012	-3.060821	-0.419510	-1.332722	-3.060821	-0.291836	-1.332722	-2.520676	-0.237115	-1.117746	-2.340628	-0.145905	-0.849053	-2.160579	-1.823920	-6.200551	-16.021992	0.000000	0.000000	20.455176	7.440323	17.732277	37.736335	16.787818	150.443433	0.297236	0.426806	60.343188	-24.624128	5.268171	-24.673582	0.929806	44.639865	84.578075	-14.965384	4.905874
2.738095	-6.716589	-1.281413	87.578041	0.287084	0.412171	0.921233	7.479096	-5.342758	-1.065100	14.621807	0.255199	25.019654	-4.887309	0.000000	1.896239	6.812943	-11.777877	3.637057	0.063479	21.451976	12.677882	0.000000	-0.330931	-0.681231	-3.255942	-0.614573	-0.906038	-3.459438	-0.543687	-1.656346	-3.459438	-0.378222	-1.656346	-2.848949	-0.307303	-1.389167	-2.645453	-0.189094	-1.055227	-2.441956	-2.363810	-7.706224	-18.108571	0.000000	0.000000	19.280951	8.046284	20.575468	40.263465	21.059250	157.756716	-5.529756	-3.483826	67.040418	-27.609103	2.733313	-24.981844	-6.189266	45.507035	82.389528	-15.644809	5.317661
2.761905	-7.226902	-0.250647	87.533712	0.289433	0.414969	0.920748	6.495794	-5.623159	0.097021	14.780254	0.257964	24.710579	-6.576730	0.000000	0.653193	7.234177	-12.363624	3.491723	0.060942	20.838815	13.205012	0.000000	-0.392312	-0.779579	-3.525405	-0.728563	-1.036841	-3.745742	-0.644530	-1.895469	-3.745742	-0.448374	-1.895469	-3.084729	-0.364301	-1.589718	-2.864391	-0.224167	-1.207568	-2.644053	-2.802246	-8.818758	-19.607243	0.000000	0.000000	18.263344	8.426378	22.831741	41.837955	23.804740	161.618838	-8.221101	-5.140910	71.205317	-28.912822	0.859119	-25.041394	-11.785278	46.209519	80.442274	-16.573569	5.562993
2.785714	-7.559086	0.628161	87.519912	0.290931	0.417372	0.919676	5.576423	-5.785375	0.987308	14.810786	0.258497	24.458856	-7.887259	0.000000	-0.476742	7.525453	-12.661106	3.310491	0.057779	20.321842	13.424050	0.000000	-0.439711	-0.847735	-3.705512	-0.816588	-1.127487	-3.937107	-0.722402	-2.061182	-3.937107	-0.502546	-2.061182	-3.242323	-0.408316	-1.728700	-3.010729	-0.251251	-1.313141	-2.779134	-3.140814	-9.589743	-20.608946	0.000000	0.000000	17.405131	8.596681	24.478133	42.507286	25.144380	162.307466	-8.035410	-4.858675	72.935668	-28.703839	-0.601492	-24.964089	-16.589019	46.989390	78.773451	-17.216284	6.172856
2.809524	-7.711200	1.334734	87.611272	0.291516	0.419371	0.918132	4.732656	-5.830224	1.524088	14.703581	0.256626	24.236857	-8.823972	0.000000	-1.446610	7.676677	-12.640053	3.116875	0.054400	19.905227	13.406018	0.000000	-0.471276	-0.885930	-3.814921	-0.875206	-1.178287	-4.053354	-0.774259	-2.154050	-4.053354	-0.538621	-2.154050	-3.338056	-0.437627	-1.806588	-3.099623	-0.269287	-1.372305	-2.861191	-3.366275	-10.021815	-21.217447	0.000000	0.000000	16.705421	8.594505	25.546372	42.322711	25.173517	160.056505	-5.255959	-2.916311	72.614799	-27.180916	-1.803595	-24.732151	-20.866049	47.899929	77.425199	-17.498172	7.372448
2.833333	-7.704007	1.875991	87.746765	0.291293	0.420974	0.916248	3.994626	-5.779879	1.766269	14.509655	0.253241	24.070896	-9.384674	0.000000	-2.257583	7.706595	-12.382283	2.911496	0.050815	19.594379	13.152401	0.000000	-0.490511	-0.895753	-3.851403	-0.910928	-1.191351	-4.092116	-0.805860	-2.177933	-4.092116	-0.560605	-2.177933	-3.369978	-0.455488	-1.826619	-3.129265	-0.280278	-1.387521	-2.888552	-3.503670	-10.132932	-21.420349	0.000000	0.000000	16.200777	8.436179	26.142078	41.384121	24.006024	155.145502	-0.164569	0.381514	70.444259	-24.488500	-2.805189	-24.343665	-24.571881	48.971317	76.402311	-17.708045	8.991722
2.857143	-7.538564	2.238917	87.997537	0.290233	0.422194	0.914144	3.371297	-5.633777	1.660578	14.218364	0.248157	23.947092	-9.591831	0.000000	-2.874072	7.605886	-11.877698	2.713347	0.047357	19.391803	12.754977	0.000000	-0.495999	-0.877893	-3.830648	-0.921120	-1.167597	-4.070064	-0.814877	-2.134508	-4.070064	-0.566877	-2.134508	-3.351817	-0.460585	-1.790199	-3.112402	-0.283414	-1.359856	-2.872986	-3.542871	-9.930897	-21.304916	0.000000	0.000000	15.885273	8.142081	26.306226	39.741127	21.774471	147.851815	6.934966	4.815864	66.688786	-20.878936	-3.606550	-23.833212	-27.560096	50.239604	75.732506	-18.134060	10.868475
2.880952	-7.225919	2.412771	88.372241	0.288376	0.423030	0.911887	2.878565	-5.401415	1.222212	13.829033	0.241362	23.865170	-9.463482	0.000000	-3.278431	7.380659	-11.175416	2.526530	0.044096	19.298036	12.288844	0.000000	-0.486512	-0.834251	-3.759024	-0.903502	-1.109554	-3.993963	-0.799291	-2.028397	-3.993963	-0.556035	-2.028397	-3.289146	-0.451775	-1.701204	-3.054207	-0.277993	-1.292255	-2.819268	-3.475109	-9.437212	-20.906563	0.000000	0.000000	15.782451	7.750629	26.058382	37.458997	18.624412	138.492165	15.726250	10.169907	61.608803	-16.567443	-4.220141	-23.217449	-29.745051	51.739142	75.459332	-18.908508	12.727149
2.904762	-6.777359	2.404466	88.886920	0.285799	0.423499	0.909529	2.511870	-5.082392	0.494125	13.341952	0.232861	23.820805	-9.068413	0.000000	-3.470606	7.035098	-10.304766	2.358893	0.041170	19.313121	11.814532	0.000000	-0.462892	-0.767392	-3.643484	-0.859637	-1.020631	-3.871202	-0.760485	-1.865836	-3.871202	-0.529039	-1.865836	-3.188049	-0.429842	-1.564865	-2.960331	-0.264497	-1.188690	-2.732613	-3.306392	-8.680889	-20.263968	0.000000	0.000000	15.888194	7.277915	25.410435	34.649354	14.704168	127.437630	25.871138	16.294446	55.558889	-11.749725	-4.621282	-22.524107	-31.040448	53.458320	75.620004	-20.056681	14.322265
2.928571	-6.211413	2.224063	89.540466	0.282569	0.423602	0.907094	2.264066	-4.692684	-0.513604	12.766135	0.222811	23.835460	-8.393061	0.000000	-3.460901	6.588061	-9.259147	2.208924	0.038553	19.441276	11.339991	0.000000	-0.426342	-0.680069	-3.490708	-0.791760	-0.904491	-3.708877	-0.700438	-1.653519	-3.708877	-0.487267	-1.653519	-3.054369	-0.395901	-1.386796	-2.836200	-0.243612	-1.053427	-2.618031	-3.045320	-7.693074	-19.414268	0.000000	0.000000	16.221043	6.752089	24.418911	31.435856	10.183120	115.117930	37.007430	23.087415	48.906214	-6.629175	-4.795875	-21.769268	-31.476887	55.408505	76.214488	-21.506546	15.581811
2.952381	-5.536694	1.886218	90.333557	0.278747	0.423341	0.904632	2.130776	-4.224099	-1.714687	12.119601	0.211527	23.882208	-7.584327	0.000000	-3.260898	6.045576	-8.071717	2.078773	0.036281	19.694090	10.914066	0.000000	-0.379290	-0.573846	-3.307674	-0.704380	-0.763215	-3.514404	-0.623136	-1.395249	-3.514404	-0.433491	-1.395249	-2.894215	-0.352209	-1.170187	-2.687485	-0.216726	-0.888888	-2.480756	-2.709233	-6.491461	-18.396291	0.000000	0.000000	16.771435	6.190914	23.137462	27.957300	5.221163	101.900492	48.754503	30.411169	42.098260	-1.390201	-4.728179	-20.948497	-31.224437	57.574049	77.143974	-22.905175	16.454243
2.976190	-4.786921	1.402191	91.230035	0.274482	0.422710	0.902158	2.114535	-3.705204	-3.036464	11.432035	0.199527	23.969612	-6.685665	0.000000	-2.885458	5.441526	-6.747298	1.965748	0.034309	20.061117	10.506182	0.000000	-0.321909	-0.454539	-3.102869	-0.597818	-0.604537	-3.296798	-0.528865	-1.105167	-3.296798	-0.367910	-1.105167	-2.715010	-0.298925	-0.926897	-2.521081	-0.183939	-0.704081	-2.327152	-2.299366	-5.141840	-17.257226	0.000000	0.000000	17.515198	5.614054	21.551907	24.358681	0.005845	88.258812	60.733043	38.064011	35.439353	3.821407	-4.460812	-20.054559	-30.478369	59.989336	78.398118	-24.064998	17.059277
3.000000	-3.983621	0.816154	92.199056	0.269922	0.421775	0.899755	2.187171	-3.148751	-4.471308	10.729848	0.187271	24.083815	-5.695276	0.000000	-2.373550	4.791523	-5.355800	1.872648	0.032684	20.543115	10.169306	0.000000	-0.257767	-0.324718	-2.889336	-0.478699	-0.431875	-3.069920	-0.423486	-0.789520	-3.069920	-0.294602	-0.789520	-2.528169	-0.239363	-0.662165	-2.347586	-0.147288	-0.502988	-2.167002	-1.841205	-3.673277	-16.069622	0.000000	0.000000	18.353298	5.033539	19.836281	20.800086	-5.276521	74.719177	72.564913	45.783607	29.091978	8.852016	-4.059201	-19.107712	-29.328236	62.592001	79.660191	-24.814572	17.179853
3.023810	-3.165511	0.164584	93.193367	0.265297	0.420609	0.897528	2.331106	-2.572284	-5.860478	10.038149	0.175199	24.153627	-4.814082	0.000000	-1.765129	4.133823	-3.926576	1.788346	0.031213	21.092983	9.867000	0.000000	-0.188885	-0.191462	-2.677406	-0.350778	-0.254645	-2.844744	-0.310319	-0.465522	-2.844744	-0.215877	-0.465522	-2.342730	-0.175399	-0.390430	-2.175392	-0.107929	-0.296575	-2.008055	-1.349186	-2.165861	-14.890929	0.000000	0.000000	19.220732	4.460466	18.038258	17.409086	-10.421880	61.745052	83.888792	53.315378	23.181503	13.541184	-3.625153	-18.100583	-28.035290	65.386203	80.796687	-24.891266	16.796420
